{"title":"Cross (2011) DvdRip Xvid {1337x}-X.avi","uid":6408602,"size":735387648,"categoryP":"video","categoryS":"movies","magnet":"?xt=urn:btih:7f74cf555f02fa264fa136ba7cafa1eb5d4484b3&amp;dn=Cross+%282011%29+DvdRip+Xvid+%7B1337x%7D-X.avi&amp;tr=udp%3A%2F%2Ftracker.openbittorrent.com%3A80&amp;tr=udp%3A%2F%2Fopen.demonii.com%3A1337&amp;tr=udp%3A%2F%2Ftracker.coppersurfer.tk%3A6969&amp;tr=udp%3A%2F%2Fexodus.desync.com%3A6969","seeders":0,"leechers":1,"uploader":"hiest","files":-1,"time":1305851580,"description":"##     ## ##     ##  ######  ########    ###    ##    ##  ######   ##     ## \n###   ### ##     ## ##    ##    ##      ## ##   ###   ## ##    ##   ##   ##  \n#### #### ##     ## ##          ##     ##   ##  ####  ## ##          ## ##   \n## ### ## ##     ##  ######     ##    ##     ## ## ## ## ##   ####    ###    \n##     ## ##     ##       ##    ##    ######### ##  #### ##    ##    ## ##   \n##     ## ##     ## ##    ##    ##    ##     ## ##   ### ##    ##   ##   ##  \n##     ##  #######   ######     ##    ##     ## ##    ##  ######   ##     ## \n\n \n Cross (2011) DvdRip Xvid {1337x}-X.avi\n\n\n Video\n ID : 0\n Format : MPEG-4 Visual\n Format profile : Advanced Simple@L5\n Format settings, BVOP : Yes\n Format settings, QPel : No\n Format settings, GMC : No warppoints\n Format settings, Matrix : Default (H.263)\n Muxing mode : Packed bitstream\n Codec ID : XVID\n Codec ID/Hint : XviD\n Duration : 1h 44mn\n Bit rate : 818 Kbps\n Width : 608 pixels\n Height : 336 pixels\n Display aspect ratio : 16:9\n Frame rate : 23.976 fps\n Color space : YUV\n Chroma subsampling : 4:2:0\n Bit depth : 8 bits\n Scan type : Progressive\n Bits/(Pixel*Frame) : 0.167\n Stream size : 614 MiB (87%)\n Writing library : XviD 57\n\n Audio\n ID : 1\n Format : MPEG Audio\n Format version : Version 1\n Format profile : Layer 3\n Mode : Joint stereo\n Mode extension : MS Stereo\n Codec ID : 55\n Codec ID/Hint : MP3\n Duration : 1h 44mn\n Bit rate mode : Variable\n Bit rate : 104 Kbps\n Nominal bit rate : 112 Kbps\n Channel(s) : 2 channels\n Sampling rate : 48.0 KHz\n Stream size : 78.1 MiB (11%)\n Alignment : Aligned on interleaves\n Interleave, duration : 24 ms (0.58 video frame)\n Interleave, preload duration : 177 ms\n Writing library : LAME3.97\n Encoding settings : -m j -V 4 -q 2 -lowpass 16 --abr 112\n\n IMDB\n &lt;a href=&quot; http://www.imdb.com/title/tt1046245/&quot; rel=&quot;nofollow&quot; target=&quot;_NEW&quot;&gt; http://www.imdb.com/title/tt1046245/&lt;/a&gt;\n\n Screens:\n \n &lt;a href=&quot; http://leetleech.org/images/15365553258901006948.jpg&quot; rel=&quot;nofollow&quot; target=&quot;_NEW&quot;&gt; http://leetleech.org/images/15365553258901006948.jpg&lt;/a&gt;\n \n Shout out to noir and all my friends @ 1337x.org and extratorrent\n\n\n##     ## ##     ##  ######  ########    ###    ##    ##  ######   ##     ## \n###   ### ##     ## ##    ##    ##      ## ##   ###   ## ##    ##   ##   ##  \n#### #### ##     ## ##          ##     ##   ##  ####  ## ##          ## ##   \n## ### ## ##     ##  ######     ##    ##     ## ## ## ## ##   ####    ###    \n##     ## ##     ##       ##    ##    ######### ##  #### ##    ##    ## ##   \n##     ## ##     ## ##    ##    ##    ##     ## ##   ### ##    ##   ##   ##  \n##     ##  #######   ######     ##    ##     ## ##    ##  ######   ##     ## ","torrent":{"xt":"urn:btih:7f74cf555f02fa264fa136ba7cafa1eb5d4484b3","amp;dn":"Cross+%282011%29+DvdRip+Xvid+%7B1337x%7D-X.avi","amp;tr":["udp%3A%2F%2Ftracker.openbittorrent.com%3A80","udp%3A%2F%2Fopen.demonii.com%3A1337","udp%3A%2F%2Ftracker.coppersurfer.tk%3A6969","udp%3A%2F%2Fexodus.desync.com%3A6969"],"infoHash":"7f74cf555f02fa264fa136ba7cafa1eb5d4484b3","infoHashBuffer":{"type":"Buffer","data":[127,116,207,85,95,2,250,38,79,161,54,186,124,175,161,235,93,68,132,179]},"announce":[],"urlList":[]}}